<?xml version="1.0" standalone="no"?>
<!DOCTYPE svg PUBLIC "-//W3C//DTD SVG 20010904//EN"
 "http://www.w3.org/TR/2001/REC-SVG-20010904/DTD/svg10.dtd">
<svg version="1.0" xmlns="http://www.w3.org/2000/svg"
 width="512.000000pt" height="512.000000pt" viewBox="0 0 512.000000 512.000000"
 preserveAspectRatio="xMidYMid meet">
<metadata>
Created by potrace 1.14, written by Peter Selinger 2001-2017
</metadata>
<g transform="translate(0.000000,512.000000) scale(0.100000,-0.100000)"
fill="#000000" stroke="none">
<path d="M1988 5116 c-1 -2 -46 -6 -98 -9 -187 -12 -335 -43 -520 -109 -653
-235 -1124 -773 -1264 -1448 -36 -171 -38 -190 -41 -380 -2 -160 15 -360 39
-436 3 -11 7 -30 10 -44 25 -138 126 -392 217 -550 18 -31 121 -184 128 -190
4 -3 22 -26 41 -52 37 -50 205 -219 280 -281 220 -185 597 -361 860 -402 19
-3 46 -8 60 -10 67 -14 108 -17 275 -20 119 -2 214 1 280 11 166 23 165 20 30
73 -66 26 -158 67 -205 91 -73 38 -255 150 -293 180 -157 125 -290 251 -372
351 -52 63 -117 151 -163 223 -54 82 -162 294 -162 318 0 8 -4 18 -9 24 -15
14 -68 199 -90 309 -46 229 -48 491 -6 745 21 127 24 137 51 235 45 163 91
272 198 470 35 65 163 231 244 316 194 204 407 356 694 494 61 30 105 56 97
59 -36 11 -77 17 -162 22 -51 3 -97 7 -104 9 -6 2 -13 2 -15 1z"/>
<path d="M2987 5064 c-1 -1 -38 -5 -82 -9 -203 -17 -454 -89 -660 -190 -110
-54 -292 -164 -331 -199 -7 -6 -29 -24 -50 -41 -69 -54 -203 -188 -273 -275
-196 -243 -343 -556 -407 -865 -29 -139 -38 -228 -38 -375 0 -138 8 -208 35
-323 10 -43 29 -74 29 -48 0 22 74 199 131 314 341 687 1019 1120 1754 1121
86 0 277 -11 310 -18 11 -2 45 -7 75 -11 88 -11 282 -62 387 -101 315 -117
604 -326 808 -584 33 -41 62 -77 66 -80 3 -3 35 -50 71 -105 74 -113 136 -222
193 -343 22 -45 42 -82 45 -82 3 0 7 10 8 23 1 12 6 53 10 90 9 74 8 305 -2
377 -27 194 -69 353 -135 512 -184 442 -509 792 -929 1003 -114 56 -268 117
-348 136 -27 6 -56 14 -64 17 -21 7 -27 8 -95 21 -33 6 -69 13 -80 15 -74 14
-416 30 -428 20z"/>
<path d="M2938 3944 c-2 -1 -23 -5 -48 -9 -75 -10 -93 -14 -140 -28 l-44 -13
109 -43 c312 -123 575 -291 786 -501 128 -127 162 -168 240 -285 147 -219 269
-547 295 -793 3 -31 8 -65 11 -76 12 -50 10 -427 -3 -530 -55 -452 -238 -826
-550 -1126 -186 -178 -357 -297 -625 -432 l-144 -72 80 -11 c295 -41 646 12
955 142 545 231 943 682 1117 1263 14 47 26 90 27 95 67 323 67 615 1 903 -66
289 -217 591 -410 822 -36 43 -211 217 -245 245 -170 135 -327 228 -522 309
-90 37 -272 94 -328 102 -19 3 -41 7 -48 9 -7 3 -34 7 -60 11 -26 3 -69 10
-97 14 -45 7 -351 11 -357 4z"/>
<path d="M3913 2390 c-6 -14 -25 -60 -42 -103 -40 -99 -112 -250 -158 -331
-42 -72 -163 -254 -188 -282 -5 -7 -30 -36 -55 -65 -91 -108 -211 -219 -330
-306 -53 -38 -262 -163 -274 -163 -3 0 -29 -11 -59 -24 -135 -62 -396 -131
-567 -151 -123 -14 -446 -13 -560 1 -218 27 -406 82 -595 174 -402 194 -711
520 -957 1013 -38 75 -70 137 -72 137 -1 0 -4 -17 -5 -37 -1 -21 -4 -56 -6
-78 -11 -125 -4 -344 15 -450 5 -27 12 -66 15 -85 3 -19 17 -76 30 -127 204
-772 856 -1342 1655 -1447 101 -14 393 -15 483 -2 531 73 991 333 1312 741
184 235 322 530 372 794 2 14 6 27 8 31 2 3 7 33 10 65 4 33 9 69 12 80 3 11
6 94 8 185 4 154 -6 270 -33 410 -9 43 -9 44 -19 20z"/>
</g>
</svg>
