<svg xmlns="http://www.w3.org/2000/svg" viewBox="0 0 41.689 41.688"><path d="M40.864 5.555c-.405-1.029-1.341-2.478-2.666-3.5-.766-.589-1.68-1.153-2.935-1.525-1.338-.397-2.987-.531-5.038-.531H11.464c-2.052 0-3.7.134-5.038.531-1.255.372-2.169.936-2.935 1.525-1.326 1.021-2.261 2.47-2.666 3.5C.008 7.629 0 9.982 0 11.464v18.76c0 1.482.008 3.835.825 5.909.405 1.029 1.34 2.479 2.666 3.5.766.59 1.68 1.153 2.935 1.525 1.339.397 2.987.531 5.038.531h18.76c2.052 0 3.7-.134 5.038-.531 1.256-.372 2.17-.936 2.935-1.525 1.326-1.021 2.261-2.47 2.666-3.5.816-2.074.825-4.427.825-5.909v-18.76c0-1.482-.008-3.835-.825-5.909ZM24.349 28.317a73.066 73.066 0 0 1-.584 4.717c-.192 1.235-.347 1.901-.489 2.379-.23.773-1.089 1.45-2.433 1.45s-2.203-.677-2.433-1.45c-.142-.477-.297-1.144-.489-2.379a72.281 72.281 0 0 1-.584-4.717c-.114-1.341-.173-2.18-.068-3.154.054-.503.227-.856.553-1.2.626-.66 1.724-1.083 3.022-1.083s2.396.423 3.021 1.083c.326.344.499.698.553 1.2.105.974.046 1.812-.068 3.154Zm-8.93-3.24a.607.607 0 0 1 .191.477c-.031.545-.02 1.076.017 1.675a.193.193 0 0 1-.3.171 9.817 9.817 0 0 1-4.294-8.242c.067-5.2 4.235-9.484 9.432-9.685 5.591-.217 10.209 4.269 10.209 9.813A9.82 9.82 0 0 1 26.38 27.4a.193.193 0 0 1-.301-.172c.036-.599.047-1.129.017-1.674a.607.607 0 0 1 .191-.477 7.923 7.923 0 0 0 2.511-5.791c0-4.485-3.736-8.114-8.259-7.939-4.162.161-7.518 3.562-7.628 7.726a7.923 7.923 0 0 0 2.509 6.004Zm8.839-6.991a3.413 3.413 0 1 1-6.825-.001 3.413 3.413 0 0 1 6.825.001Zm1.44 15.03a.196.196 0 0 1-.26-.214c.075-.501.147-1.005.212-1.501a.502.502 0 0 1 .296-.397c4.518-1.974 7.684-6.484 7.684-11.722 0-7.084-5.792-12.841-12.889-12.784-6.942.056-12.611 5.716-12.678 12.658-.051 5.29 3.129 9.857 7.682 11.846a.507.507 0 0 1 .297.397c.065.496.137 1 .212 1.502a.196.196 0 0 1-.26.214c-5.761-2.026-9.887-7.555-9.807-14.019.099-7.979 6.637-14.452 14.616-14.475 8.103-.023 14.702 6.562 14.703 14.66 0 6.384-4.102 11.827-9.808 13.834Z"/></svg>