<svg xmlns="http://www.w3.org/2000/svg" viewBox="0 0 43.94 43.941"><path d="M2.746 17.727A2.744 2.744 0 0 0 0 20.473v2.996c0 1.518 1.228 2.746 2.746 2.746s2.746-1.228 2.746-2.746v-2.996a2.744 2.744 0 0 0-2.746-2.746Zm38.447 0a2.744 2.744 0 0 0-2.746 2.746v2.996c0 1.518 1.228 2.746 2.746 2.746s2.746-1.228 2.746-2.746v-2.996a2.744 2.744 0 0 0-2.746-2.746Zm-28.958 8.988a2.744 2.744 0 0 0-2.746 2.746v2.996c0 1.518 1.228 2.746 2.746 2.746s2.746-1.228 2.746-2.746v-2.996a2.744 2.744 0 0 0-2.746-2.746Zm0-17.976a2.744 2.744 0 0 0-2.746 2.746v9.799h.003c.035 1.488 1.248 2.684 2.744 2.684s2.709-1.196 2.744-2.684h.002v-9.799a2.744 2.744 0 0 0-2.746-2.746Zm19.473 0a2.744 2.744 0 0 0-2.746 2.746v2.996c0 1.518 1.228 2.746 2.746 2.746s2.746-1.228 2.746-2.746v-2.996a2.744 2.744 0 0 0-2.746-2.746ZM21.969 0a2.744 2.744 0 0 0-2.746 2.746v2.996c0 1.518 1.228 2.746 2.746 2.746s2.746-1.228 2.746-2.746V2.746A2.744 2.744 0 0 0 21.969 0Zm0 35.452a2.744 2.744 0 0 0-2.746 2.746v2.996c0 1.518 1.228 2.746 2.746 2.746s2.746-1.228 2.746-2.746v-2.996a2.744 2.744 0 0 0-2.746-2.746Zm9.738-15.479a2.744 2.744 0 0 0-2.746 2.746v9.737c0 1.518 1.228 2.746 2.746 2.746s2.746-1.228 2.746-2.746v-9.737a2.744 2.744 0 0 0-2.746-2.746Zm-6.992-5.992c0-1.518-1.228-2.746-2.746-2.746s-2.746 1.228-2.746 2.746v15.978c0 1.518 1.228 2.746 2.746 2.746s2.746-1.228 2.746-2.746V13.981Z"/></svg>