<svg xmlns="http://www.w3.org/2000/svg" viewBox="0 0 17.804 17.805"><path d="M8.902 4.33a4.575 4.575 0 0 0-4.224 2.822 4.574 4.574 0 0 0 5.973 5.973 4.577 4.577 0 0 0 2.822-4.224 4.563 4.563 0 0 0-1.339-3.232A4.574 4.574 0 0 0 8.902 4.33Zm0 7.539a2.969 2.969 0 1 1 0-5.938 2.969 2.969 0 0 1 0 5.938Zm8.848-6.637a6.545 6.545 0 0 0-.413-2.161 4.372 4.372 0 0 0-1.027-1.577A4.36 4.36 0 0 0 14.734.467a6.515 6.515 0 0 0-2.161-.413C11.624.011 11.32 0 8.903 0S6.182.01 5.232.054a6.545 6.545 0 0 0-2.161.413 4.372 4.372 0 0 0-1.577 1.027A4.35 4.35 0 0 0 .467 3.071a6.545 6.545 0 0 0-.413 2.161C.01 6.181 0 6.485 0 8.902s.01 2.721.054 3.67c.015.738.154 1.469.413 2.161a4.35 4.35 0 0 0 1.027 1.577c.445.452.983.803 1.577 1.027a6.515 6.515 0 0 0 2.161.413c.95.043 1.253.054 3.67.054s2.721-.01 3.67-.054a6.57 6.57 0 0 0 2.161-.413 4.548 4.548 0 0 0 2.604-2.604 6.515 6.515 0 0 0 .413-2.161c.043-.95.053-1.253.053-3.67s-.01-2.721-.053-3.67ZM16.149 12.5a4.962 4.962 0 0 1-.306 1.653 2.948 2.948 0 0 1-1.69 1.689c-.529.196-1.089.3-1.653.306-.938.043-1.22.052-3.598.052s-2.658-.009-3.597-.052a4.908 4.908 0 0 1-1.653-.306 2.755 2.755 0 0 1-1.024-.666 2.747 2.747 0 0 1-.666-1.023 4.912 4.912 0 0 1-.306-1.653c-.043-.938-.052-1.22-.052-3.598s.009-2.658.052-3.598a4.962 4.962 0 0 1 .306-1.653c.143-.387.37-.737.666-1.024a2.743 2.743 0 0 1 1.024-.666 4.912 4.912 0 0 1 1.653-.306c.938-.043 1.22-.052 3.597-.052s2.658.009 3.598.052a4.962 4.962 0 0 1 1.653.306 2.948 2.948 0 0 1 1.69 1.69c.196.529.3 1.089.306 1.653.043.939.052 1.22.052 3.598s-.009 2.658-.052 3.598Zm-2.494-9.418a1.069 1.069 0 1 0 .001 2.138 1.069 1.069 0 0 0-.001-2.138Z" fill="#fff"/></svg>