<svg xmlns="http://www.w3.org/2000/svg" viewBox="0 0 21.76 21.821"><path d="M2.687 5.005h-.032A2.502 2.502 0 0 1 .196 3.476a2.499 2.499 0 0 1 .025-2.001A2.507 2.507 0 0 1 2.719.009a2.511 2.511 0 0 1 2.484 1.51 2.504 2.504 0 0 1-1.495 3.363 2.515 2.515 0 0 1-1.019.124Zm2.258 3.364H.462v13.452h4.484V8.369Zm11.77 0a5.004 5.004 0 0 0-3.923 1.91v-1.91H8.308v13.452h4.484v-6.165a2.245 2.245 0 0 1 2.242-2.242 2.24 2.24 0 0 1 2.242 2.242v6.165h4.484v-8.407a5.035 5.035 0 0 0-1.478-3.567 5.054 5.054 0 0 0-3.567-1.478Z" fill="#fff"/></svg>