<svg xmlns="http://www.w3.org/2000/svg" viewBox="0 0 196 50"><path d="M104.27 14.507a21.66 21.66 0 0 0-.237-2.9c-.679-4.926-3.388-7.743-8.184-8.226-5.143-.518-9.552 1.488-10.792 7.526a17.112 17.112 0 0 0-.336 3.234c-.04 3.652-.015 7.3-.015 10.955 0 3.34-.02 6.682.011 10.023.008 1.203.086 2.406.235 3.6.526 4.112 2.783 6.883 6.325 7.578 1.449.281 2.929.366 4.4.252 4.385-.344 7.072-2.64 8.073-6.8a15.9 15.9 0 0 0 .479-3.567c.054-7.226.053-14.451.044-21.677l-.003.002ZM98.434 35.79a12.27 12.27 0 0 1-.541 3.42 3.135 3.135 0 0 1-3.192 2.24c-1.573.059-2.933-.455-3.467-1.995a13.328 13.328 0 0 1-.707-3.958c-.094-3.53-.032-7.062-.032-10.594h.038c0-3.841-.021-7.684.018-11.525.022-.774.157-1.54.4-2.276a3.69 3.69 0 0 1 7.062.057c.273.968.417 1.969.428 2.975.035 7.219.035 14.437 0 21.656M147.921 24.408c3.219 1.613 3.607 4.491 3.673 7.48.1 4.651.149 9.3.219 14.054h-5.421c-.114-2.183-.28-4.407-.335-6.634-.066-2.679-.021-5.36-.064-8.04a8.426 8.426 0 0 0-.284-1.953 2.776 2.776 0 0 0-2.485-2.282c-1.18-.13-2.371-.16-3.694-.243v19.185h-5.62V4.115c.057-.049.116-.14.174-.14 3.378 0 6.767-.157 10.132.06 4.581.295 7.169 2.833 7.619 7.432a36.91 36.91 0 0 1-.063 7.19 6.61 6.61 0 0 1-3.851 5.751Zm-8.329-15.817v13.5c.956 0 1.844.063 2.721-.012 2.194-.186 3.44-1.13 3.695-3.324a38.89 38.89 0 0 0 .085-6.833 3.125 3.125 0 0 0-2.648-3.016 34.904 34.904 0 0 0-3.853-.315M122.504 3.98h5.683c.025.385.065.723.065 1.061 0 10.33.042 20.657-.036 30.987-.02 1.78-.31 3.548-.861 5.242-1.115 3.415-3.815 4.983-7.246 5.266a16.121 16.121 0 0 1-4.505-.261c-3.439-.7-5.544-3.143-6.15-6.893a19.11 19.11 0 0 1-.263-3.011c-.019-10.523-.023-21.046-.011-31.57V4.02h5.712v1.487c0 10.1-.011 20.192.018 30.288a12.045 12.045 0 0 0 .412 3.21 3.333 3.333 0 0 0 3.648 2.448 3.241 3.241 0 0 0 3.222-2.685c.209-1.025.309-2.069.3-3.114.021-10.057.025-20.114.013-30.17l-.001-1.504ZM61.903 33.801h5.749c0 .924-.046 1.768.012 2.6.032.966.157 1.927.373 2.869a3.177 3.177 0 0 0 3.272 2.452 2.932 2.932 0 0 0 3.177-2.365c1.132-4.742.56-8.714-3.082-11.633-1.272-1.02-2.491-2.107-3.792-3.087-4.063-3.057-5.408-7.217-4.977-12.1a19.85 19.85 0 0 1 .457-2.988c1.145-4.659 4.877-6.967 9.95-6.2 3.805.574 5.77 2.392 6.6 6.176.185.872.3 1.758.347 2.648.059 1 .013 2.005.013 3.091h-5.6c-.061-1.308-.081-2.619-.192-3.923a3.237 3.237 0 0 0-1.44-2.777 2.706 2.706 0 0 0-4.07 1.685c-.858 3.675-.71 6.918 2.44 9.405 1.22.962 2.414 1.957 3.667 2.872a13.869 13.869 0 0 1 5.9 12.706 25.6 25.6 0 0 1-.773 5.389 7.537 7.537 0 0 1-6.667 5.829c-3.334.451-6.56.241-9.055-2.422-1.875-2-2.153-4.576-2.307-7.155-.058-.962-.01-1.931-.01-3.07M169.277 33.668h5.721c.046 3.35.149 6.687-1.785 9.654a7.433 7.433 0 0 1-6.158 3.228 16.75 16.75 0 0 1-4.163-.24c-3.315-.63-5.4-3.132-5.911-6.92a24.485 24.485 0 0 1-.267-3.245c-.014-7.73-.005-15.46.029-23.19.009-.931.122-1.859.337-2.765 1.155-4.956 4.843-7.447 10.048-6.84 4.432.52 6.6 2.476 7.373 6.9.317 1.819.331 3.69.484 5.552a4.64 4.64 0 0 1-.741.157c-1.665.009-3.331.005-5.16.005 0-.878.031-1.677-.008-2.473a16.042 16.042 0 0 0-.246-2.541 3.086 3.086 0 0 0-2.956-2.431 3.083 3.083 0 0 0-3.044 2.318 11.513 11.513 0 0 0-.3 2.648c-.022 7.5-.034 14.994.009 22.492.007 1.16.175 2.313.5 3.427a2.748 2.748 0 0 0 3.016 2.048 2.655 2.655 0 0 0 2.757-2.215c.235-1.215.385-2.445.451-3.681.055-.606.009-1.221.009-1.89M178.732 3.977h15.429v5.187h-9.647v11.89h9.164v5.255h-9.185v14.427h10.605c-.4 1.753-.744 3.357-1.147 4.947-.041.16-.419.338-.642.338-4.773.006-9.547-.004-14.322-.03-.068 0-.135-.067-.257-.13l.002-41.884ZM37.97 26.304a18.823 18.823 0 0 1-6.3 18.6 19.236 19.236 0 0 1-31.5-17.39c3.73 8.49 9.994 13.47 19.364 13.157 9.37-.314 15.345-5.642 18.436-14.367Z" /><path d="M23.218 38.023a19.007 19.007 0 0 1-20.244-8.757A19.422 19.422 0 0 1 4.23 7.416C9.281.92 17.387-.791 22.002.31c-8.15 3.534-12.828 9.539-13.067 18.59a18.57 18.57 0 0 0 3.967 11.918 20.913 20.913 0 0 0 10.32 7.206M27.218 49.588c8.4-3.642 13.232-9.83 13.072-18.94-.167-9.479-5.463-15.569-14.246-18.749 4.993-1.54 13.237.1 18.418 6.193a19.374 19.374 0 0 1 1.614 22.877c-4.752 7.467-13.258 9.768-18.858 8.62Z" /><path d="M49.008 22.24c-3.721-8.438-9.946-13.085-19.19-13.077-6.478.006-15 3.846-18.465 14.22-1.47-4.2-.291-12.432 5.7-17.96a19.442 19.442 0 0 1 23.113-2.14c7.257 4.484 10.033 12.7 8.842 18.956" /></svg>