<svg xmlns="http://www.w3.org/2000/svg" viewBox="0 0 42.649 49.522">
  <path d="m20.496 37.753-1.613-1.623a15.998 15.998 0 0 0 3.507-5.217c.816-1.961 1.231-4.031 1.231-6.153s-.415-4.192-1.231-6.153a15.986 15.986 0 0 0-3.507-5.218l1.613-1.622a18.246 18.246 0 0 1 4.005 5.96c.935 2.241 1.407 4.607 1.407 7.033s-.473 4.792-1.407 7.033a18.256 18.256 0 0 1-4.005 5.96Z" fill="#fff"/>
  <path d="m26.417 43.637-1.613-1.623c4.635-4.609 7.188-10.736 7.188-17.254s-2.553-12.646-7.188-17.254l1.613-1.622c5.069 5.042 7.861 11.745 7.861 18.876s-2.792 13.835-7.861 18.877Z" fill="#fff"/>
  <path d="m32.336 49.522-1.613-1.623c6.216-6.181 9.64-14.397 9.64-23.138s-3.425-16.957-9.64-23.139L32.336 0c6.651 6.614 10.313 15.407 10.313 24.761s-3.662 18.148-10.313 24.761Z" fill="#fff"/>
  <path d="M7.442 32.161c4.11 0 7.442-3.313 7.442-7.4s-3.332-7.4-7.442-7.4S0 20.673 0 24.76s3.332 7.4 7.442 7.4Z" fill="#b200ff"/>
</svg>