<svg xmlns="http://www.w3.org/2000/svg" viewBox="0 0 114.361 47.725"><path d="M1.012 25.464 0 34.739l1.012 10.456 5.565 1.012 14.166-1.012 1.012-9.107-1.012-10.624-7.589-.843h.169c0-4.385 3.71-16.021 6.408-21.923L12.817 0 1.012 25.464Zm29.343 0-1.012 9.275 1.012 10.456 5.396 1.012 14.334-1.012.843-9.107-1.012-10.624-7.42-.843c0-4.385 3.879-16.021 6.577-21.923L41.99 0 30.354 25.464Zm53.651-3.204 1.012-9.275-1.012-10.456-5.565-1.012-14.166 1.012-1.012 9.107 1.012 10.624 7.589.843h-.169c0 4.385-3.71 16.021-6.408 21.923l6.914 2.698 11.805-25.465Zm29.343 0 1.012-9.275-1.012-10.456-5.565-1.012-14.166 1.012-1.012 9.107 1.012 10.624 7.42.843c0 4.385-3.71 16.021-6.577 21.923l7.083 2.698 11.805-25.465Z"/></svg>