<svg xmlns="http://www.w3.org/2000/svg" viewBox="0 0 23 24.566"><path d="M22.127 0H.937C.432 0 0 .461 0 .998v22.493c0 .614.432 1.075.937 1.075h21.118c.505 0 .937-.461.937-.998V.998A.886.886 0 0 0 22.127 0ZM6.847 20.958H3.388V9.212h3.46v11.746ZM5.117 7.6c-1.081 0-2.018-.921-2.018-2.15 0-1.152.865-2.15 2.018-2.15 1.081 0 2.018.921 2.018 2.15S6.198 7.6 5.117 7.6Zm14.559 13.358h-3.387v-5.681c0-1.382 0-3.071-1.802-3.071s-2.018 1.459-2.018 2.994v5.835H9.081V9.212h3.171v1.612h.072c.432-.921 1.586-1.919 3.243-1.919 3.46 0 4.108 2.457 4.108 5.604v6.449Z"/></svg>