<svg id="a" xmlns="http://www.w3.org/2000/svg" viewBox="0 0 23 20.294"><path d="M23,2.42c-.86,.39-1.72,.702-2.723,.781,1.003-.624,1.72-1.639,2.078-2.81-.931,.624-1.934,1.015-3.009,1.249-.86-1.015-2.078-1.639-3.368-1.639-2.579,0-4.729,2.264-4.729,5.151,0,.39,.072,.781,.143,1.171-3.941-.234-7.38-2.264-9.745-5.386-.43,.781-.645,1.639-.645,2.576,0,1.795,.86,3.356,2.078,4.293-.788,0-1.505-.234-2.15-.624v.078c0,2.498,1.648,4.527,3.798,4.995-.43,.078-.788,.156-1.218,.156-.287,0-.573,0-.86-.078,.573,2.029,2.364,3.512,4.371,3.59-1.576,1.405-3.654,2.185-5.875,2.185-.358,0-.788,0-1.146-.078,2.15,1.405,4.657,2.264,7.308,2.264,8.67,0,13.399-7.805,13.399-14.596v-.624c.86-.781,1.648-1.639,2.293-2.654Z"/></svg>