<svg xmlns="http://www.w3.org/2000/svg" viewBox="0 0 41 42"><path d="M32.626 18.617a1.89 1.89 0 0 0 2.627-.687c.54-.932.241-2.137-.67-2.691-7.607-4.626-19.645-5.061-26.886-2.809-1.014.316-1.585 1.412-1.278 2.45.307 1.038 1.378 1.623 2.391 1.309 6.308-1.961 17.208-1.592 23.816 2.429Zm-.216 5.954a1.661 1.661 0 0 0-.526-2.251c-6.327-3.983-15.583-5.104-23.029-2.79-.844.263-1.32 1.176-1.066 2.042.257.864 1.149 1.352 1.995 1.091 6.518-2.027 14.918-1.022 20.427 2.447a1.577 1.577 0 0 0 2.198-.539Zm-2.508 5.718a1.327 1.327 0 0 0-.424-1.8c-5.403-3.382-12.102-4.17-19.911-2.341-.689.161-1.118.863-.961 1.567.157.704.842 1.146 1.53.984 7.136-1.67 13.195-.989 18.009 2.025a1.26 1.26 0 0 0 1.757-.436ZM20.5 0C31.822 0 41 9.402 41 21s-9.178 21-20.5 21S0 32.598 0 21 9.178 0 20.5 0Z" style="fill-rule:evenodd"/></svg>