<svg xmlns="http://www.w3.org/2000/svg" viewBox="0 0 21.908 17.805"><path d="M21.908 2.106c-.82.364-1.69.602-2.581.708A4.51 4.51 0 0 0 21.303.328a8.984 8.984 0 0 1-2.855 1.091 4.5 4.5 0 0 0-6.996.549 4.49 4.49 0 0 0-.662 3.551A12.768 12.768 0 0 1 1.527.823a4.5 4.5 0 0 0 1.391 6 4.473 4.473 0 0 1-2.036-.562v.057a4.498 4.498 0 0 0 3.605 4.407 4.51 4.51 0 0 1-2.03.079 4.497 4.497 0 0 0 4.198 3.121 9.045 9.045 0 0 1-6.654 1.86 12.719 12.719 0 0 0 6.889 2.02 12.686 12.686 0 0 0 9.068-3.72 12.705 12.705 0 0 0 3.72-9.068c0-.195-.005-.389-.014-.581a9.142 9.142 0 0 0 2.245-2.33Z" fill="#fff"/></svg>