<svg xmlns="http://www.w3.org/2000/svg" viewBox="0 0 21.917 15.404"><path d="M14.608 7.481c-2.009-1.074-3.934-2.07-5.901-3.101v6.167c2.07-1.125 4.252-2.156 5.909-3.075l-.009.009Z"/><path d="M21.892 5.431a8.517 8.517 0 0 0-.91-4.114A2.855 2.855 0 0 0 19.273.304a80.522 80.522 0 0 0-8.306-.293 80.511 80.511 0 0 0-8.306.292 2.92 2.92 0 0 0-1.46.738C.31 1.868.244 3.284.11 4.477a47.355 47.355 0 0 0 0 6.459c.024.674.125 1.342.301 1.993.119.504.361.97.704 1.357.407.401.924.67 1.486.773 2.148.266 4.312.375 6.476.326 3.481.056 6.548-.003 10.161-.275a2.88 2.88 0 0 0 1.529-.782c.272-.27.478-.599.601-.962.36-1.091.537-2.234.524-3.384.034-.593.034-3.959 0-4.552Zm-7.283 2.053-.004-.002c-.826.458-1.781.943-2.788 1.454-1.011.513-2.074 1.052-3.109 1.615V4.383l2.934 1.534c.977.511 1.959 1.028 2.963 1.564l.012-.006-.009.009Z" fill="#fff"/></svg>